<svg width="28" height="28" viewBox="0 0 28 28" fill="none" xmlns="http://www.w3.org/2000/svg">
<path d="M16.3333 17.4997V19.833C16.3333 20.1424 16.2104 20.4391 15.9916 20.6579C15.7728 20.8767 15.476 20.9996 15.1666 20.9996H7.00007L3.50013 24.4996V12.8331C3.50013 12.5237 3.62304 12.2269 3.84183 12.0081C4.06062 11.7893 4.35736 11.6664 4.66677 11.6664H7.00007M24.4998 16.333L20.9999 12.8331H12.8333C12.5239 12.8331 12.2272 12.7102 12.0084 12.4914C11.7896 12.2726 11.6667 11.9758 11.6667 11.6664V4.66652C11.6667 4.35711 11.7896 4.06037 12.0084 3.84158C12.2272 3.62279 12.5239 3.49987 12.8333 3.49987H23.3332C23.6426 3.49987 23.9393 3.62279 24.1581 3.84158C24.3769 4.06037 24.4998 4.35711 24.4998 4.66652V16.333Z" stroke="black" stroke-width="2" stroke-linecap="round" stroke-linejoin="round"/>
</svg>
