<svg width="28" height="28" viewBox="0 0 28 28" fill="none" xmlns="http://www.w3.org/2000/svg">
<path d="M18.6662 19.8332V22.1664H2.33308V19.8332C2.33308 19.8332 2.33308 15.1666 10.4996 15.1666C18.6662 15.1666 18.6662 19.8332 18.6662 19.8332ZM14.5829 8.74998C14.5829 7.94239 14.3434 7.15293 13.8947 6.48144C13.4461 5.80995 12.8083 5.28658 12.0622 4.97753C11.3161 4.66848 10.4951 4.58761 9.70302 4.74517C8.91094 4.90272 8.18337 5.29162 7.61232 5.86267C7.04126 6.43373 6.65237 7.1613 6.49482 7.95338C6.33726 8.74545 6.41812 9.56646 6.72718 10.3126C7.03623 11.0587 7.55959 11.6964 8.23108 12.1451C8.90257 12.5938 9.69203 12.8333 10.4996 12.8333C11.5826 12.8333 12.6212 12.4031 13.3869 11.6373C14.1527 10.8715 14.5829 9.83293 14.5829 8.74998ZM18.5962 15.1666C19.3134 15.7216 19.9002 16.427 20.3154 17.2333C20.7307 18.0395 20.9641 18.927 20.9995 19.8332V22.1664H25.6661V19.8332C25.6661 19.8332 25.6661 15.5982 18.5962 15.1666ZM17.4995 4.66671C16.6966 4.66297 15.9115 4.90299 15.2479 5.35503C15.9566 6.34521 16.3376 7.53233 16.3376 8.74998C16.3376 9.96763 15.9566 11.1548 15.2479 12.1449C15.9115 12.597 16.6966 12.837 17.4995 12.8333C18.5825 12.8333 19.6211 12.4031 20.3868 11.6373C21.1526 10.8715 21.5828 9.83293 21.5828 8.74998C21.5828 7.66703 21.1526 6.62843 20.3868 5.86267C19.6211 5.09691 18.5825 4.66671 17.4995 4.66671Z" fill="black"/>
</svg>
