<svg width="24" height="24" viewBox="0 0 24 24" fill="none" xmlns="http://www.w3.org/2000/svg">
<path d="M20 5.707L20.707 6.414L21.414 5.707L20.707 5L20 5.707ZM3 13.707C3 13.9722 3.10536 14.2266 3.29289 14.4141C3.48043 14.6016 3.73478 14.707 4 14.707C4.26522 14.707 4.51957 14.6016 4.70711 14.4141C4.89464 14.2266 5 13.9722 5 13.707H3ZM15.707 11.414L20.707 6.414L19.293 5L14.293 10L15.707 11.414ZM20.707 5L15.707 0L14.293 1.414L19.293 6.414L20.707 5ZM20 4.707H10V6.707H20V4.707ZM3 11.707V13.707H5V11.707H3ZM10 4.707C8.14348 4.707 6.36301 5.4445 5.05025 6.75725C3.7375 8.07001 3 9.85048 3 11.707H5C5 10.3809 5.52678 9.10915 6.46447 8.17147C7.40215 7.23378 8.67392 6.707 10 6.707V4.707Z" fill="black"/>
</svg>
