<svg width="28" height="28" viewBox="0 0 28 28" fill="none" xmlns="http://www.w3.org/2000/svg">
<path d="M3.50042 23.3335C2.85875 23.3335 2.30964 23.1053 1.85308 22.6487C1.39652 22.1921 1.16785 21.6426 1.16708 21.0002V8.16681H3.50042V21.0002H23.3338V23.3335H3.50042ZM8.1671 18.6668C7.52544 18.6668 6.97632 18.4386 6.51976 17.982C6.06321 17.5255 5.83454 16.976 5.83376 16.3335V7.00014C5.83376 6.35847 6.06243 5.80935 6.51976 5.3528C6.9771 4.89624 7.52621 4.66757 8.1671 4.66679H24.5005C25.1422 4.66679 25.6917 4.89546 26.149 5.3528C26.6063 5.81013 26.8346 6.35924 26.8338 7.00014V16.3335C26.8338 16.9752 26.6056 17.5247 26.149 17.982C25.6925 18.4393 25.1429 18.6676 24.5005 18.6668H8.1671ZM10.5004 16.3335C10.5004 15.6918 10.2722 15.1427 9.81561 14.6862C9.35905 14.2296 8.80955 14.0009 8.1671 14.0002V16.3335H10.5004ZM22.1672 16.3335H24.5005V14.0002C23.8588 14.0002 23.3097 14.2288 22.8532 14.6862C22.3966 15.1435 22.1679 15.6926 22.1672 16.3335ZM16.3338 15.1668C17.306 15.1668 18.1324 14.8266 18.813 14.146C19.4935 13.4654 19.8338 12.639 19.8338 11.6668C19.8338 10.6946 19.4935 9.8682 18.813 9.18764C18.1324 8.50709 17.306 8.16681 16.3338 8.16681C15.3616 8.16681 14.5352 8.50709 13.8546 9.18764C13.1741 9.8682 12.8338 10.6946 12.8338 11.6668C12.8338 12.639 13.1741 13.4654 13.8546 14.146C14.5352 14.8266 15.3616 15.1668 16.3338 15.1668ZM8.1671 9.33348C8.80877 9.33348 9.35828 9.1052 9.81561 8.64864C10.2729 8.19208 10.5012 7.64258 10.5004 7.00014H8.1671V9.33348ZM24.5005 9.33348V7.00014H22.1672C22.1672 7.6418 22.3958 8.19131 22.8532 8.64864C23.3105 9.10598 23.8596 9.33426 24.5005 9.33348Z" fill="black"/>
</svg>
