<svg width="28" height="28" viewBox="0 0 28 28" fill="none" xmlns="http://www.w3.org/2000/svg">
<path d="M18.0836 23.2458L13.1253 18.2875L14.7586 16.6541L18.0836 19.9791L24.6753 13.3875L26.3086 15.0208L18.0836 23.2458ZM24.5003 11.6666H22.167V5.83326H19.8336V9.33327H8.16691V5.83326H5.83356V22.1667H12.8336V24.5H5.83356C5.19189 24.5 4.64278 24.2717 4.18622 23.8152C3.72967 23.3586 3.501 22.8091 3.50022 22.1667V5.83326C3.50022 5.19159 3.72889 4.64247 4.18622 4.18592C4.64356 3.72936 5.19267 3.50069 5.83356 3.49991H10.7044C10.9183 2.81936 11.3364 2.26052 11.9586 1.82341C12.5808 1.3863 13.2614 1.16735 14.0003 1.16657C14.778 1.16657 15.4734 1.38552 16.0863 1.82341C16.6992 2.2613 17.1122 2.82013 17.3253 3.49991H22.167C22.8086 3.49991 23.3581 3.72858 23.8155 4.18592C24.2728 4.64325 24.5011 5.19237 24.5003 5.83326V11.6666ZM14.0003 5.83326C14.3308 5.83326 14.6081 5.72126 14.8321 5.49726C15.0561 5.27326 15.1677 4.99637 15.1669 4.66659C15.1662 4.33681 15.0542 4.05992 14.8309 3.83592C14.6077 3.61192 14.3308 3.49991 14.0003 3.49991C13.6697 3.49991 13.3928 3.61192 13.1696 3.83592C12.9464 4.05992 12.8344 4.33681 12.8336 4.66659C12.8328 4.99637 12.9448 5.27364 13.1696 5.49842C13.3944 5.7232 13.6713 5.83481 14.0003 5.83326Z" fill="black"/>
</svg>
