<svg width="28" height="28" viewBox="0 0 28 28" fill="none" xmlns="http://www.w3.org/2000/svg">
<path d="M13.9996 11.6665C15.2372 11.6665 16.4242 11.1749 17.2994 10.2997C18.1745 9.42456 18.6662 8.23759 18.6662 6.99993C18.6662 5.76227 18.1745 4.5753 17.2994 3.70015C16.4242 2.82499 15.2372 2.33333 13.9996 2.33333C12.7619 2.33333 11.575 2.82499 10.6998 3.70015C9.82464 4.5753 9.33298 5.76227 9.33298 6.99993C9.33298 8.23759 9.82464 9.42456 10.6998 10.2997C11.575 11.1749 12.7619 11.6665 13.9996 11.6665ZM6.41636 15.1665C7.18989 15.1665 7.93175 14.8592 8.47872 14.3122C9.02569 13.7652 9.33298 13.0234 9.33298 12.2499C9.33298 11.4763 9.02569 10.7345 8.47872 10.1875C7.93175 9.64052 7.18989 9.33323 6.41636 9.33323C5.64282 9.33323 4.90096 9.64052 4.35399 10.1875C3.80702 10.7345 3.49973 11.4763 3.49973 12.2499C3.49973 13.0234 3.80702 13.7652 4.35399 14.3122C4.90096 14.8592 5.64282 15.1665 6.41636 15.1665ZM24.4994 12.2499C24.4994 13.0234 24.1921 13.7652 23.6452 14.3122C23.0982 14.8592 22.3563 15.1665 21.5828 15.1665C20.8093 15.1665 20.0674 14.8592 19.5204 14.3122C18.9735 13.7652 18.6662 13.0234 18.6662 12.2499C18.6662 11.4763 18.9735 10.7345 19.5204 10.1875C20.0674 9.64052 20.8093 9.33323 21.5828 9.33323C22.3563 9.33323 23.0982 9.64052 23.6452 10.1875C24.1921 10.7345 24.4994 11.4763 24.4994 12.2499ZM13.9996 12.8332C15.5466 12.8332 17.0304 13.4477 18.1243 14.5417C19.2183 15.6356 19.8328 17.1194 19.8328 18.6664V25.6663H8.16633V18.6664C8.16633 17.1194 8.7809 15.6356 9.87485 14.5417C10.9688 13.4477 12.4525 12.8332 13.9996 12.8332ZM5.83303 18.6664C5.83303 17.8579 5.9497 17.0774 6.16903 16.3401L5.9707 16.3565C4.97074 16.4663 4.0465 16.9413 3.37521 17.6905C2.70392 18.4398 2.33282 19.4104 2.33308 20.4164V25.6663H5.83303V18.6664ZM25.6661 25.6663V20.4164C25.6662 19.3762 25.2693 18.3751 24.5564 17.6176C23.8436 16.86 22.8684 16.4031 21.8301 16.3401C22.0483 17.0774 22.1661 17.8579 22.1661 18.6664V25.6663H25.6661Z" fill="black"/>
</svg>
